<?xml version="1.0" encoding="utf-8"?>
<!-- Generator: Adobe Illustrator 21.0.0, SVG Export Plug-In . SVG Version: 6.00 Build 0)  -->
<svg version="1.1" id="Layer_1" xmlns="http://www.w3.org/2000/svg" xmlns:xlink="http://www.w3.org/1999/xlink" x="0px" y="0px"
	 viewBox="0 0 300 300" style="enable-background:new 0 0 300 300;" xml:space="preserve">
<style type="text/css">
	.st0{fill:#78C19B;}
</style>
<path class="st0" d="M150.5,58.6c-56.3,0-107.7,30.8-145.3,81.2c-2.9,4.3-2.9,9.8,0,14.1c37.6,50.1,89,80.8,145.3,80.8
	s107.7-30.8,145.3-81.2c2.9-4.3,2.9-9.8,0-14.1C258.2,89.4,206.8,58.6,150.5,58.6z M154.4,208.5c-37.3,2.3-68.4-28.5-66.1-66.1
	c2-30.8,27.2-56,57.9-57.9c37.3-2.3,68.4,28.5,66.1,66.1C210.4,181.7,185.5,206.5,154.4,208.5z M152.8,180
	c-20.3,1.3-36.7-15.4-35.7-35.7c1-16.7,14.4-30.1,31.1-31.1c20.3-1.3,36.7,15.4,35.7,35.7C182.9,165.3,169.2,179.1,152.8,180z"/>
</svg>
