<?xml version="1.0" encoding="utf-8"?>
<!-- Generator: Adobe Illustrator 21.0.0, SVG Export Plug-In . SVG Version: 6.00 Build 0)  -->
<svg version="1.1" id="Layer_1" xmlns="http://www.w3.org/2000/svg" xmlns:xlink="http://www.w3.org/1999/xlink" x="0px" y="0px"
	 viewBox="0 0 30 50" style="enable-background:new 0 0 30 50;" xml:space="preserve">
<g>
	<path d="M26.1,2c-0.7,0-1.4,0.3-1.9,0.7L2.8,23.3c-0.5,0.5-0.8,1.2-0.8,2s0.3,1.5,0.8,2l21.4,20.5c0.5,0.5,1.2,0.7,1.9,0.7
		c0.7,0,1.5-0.3,2-0.8c0.5-0.5,0.8-1.2,0.7-1.9c0-0.7-0.3-1.4-0.8-1.9L8.7,25.3L28,6.7c1.1-1,1.1-2.8,0.1-3.8
		C27.6,2.3,26.9,2,26.1,2L26.1,2z"/>
</g>
</svg>
