<?xml version="1.0" encoding="utf-8"?>
<!-- Generator: Adobe Illustrator 21.0.0, SVG Export Plug-In . SVG Version: 6.00 Build 0)  -->
<svg version="1.1" id="Layer_1" xmlns="http://www.w3.org/2000/svg" xmlns:xlink="http://www.w3.org/1999/xlink" x="0px" y="0px"
	 viewBox="0 0 300 300" style="enable-background:new 0 0 300 300;" xml:space="preserve">
<style type="text/css">
	.st0{fill:#78C19B;}
</style>
<g>
	<path class="st0" d="M132.7,166.9c2.4,2,5.4,3.1,8.5,3.1h16.6c3.1,0,6.1-1.1,8.5-3.1l114.1-97c4.7-4,1.9-11.6-4.3-11.6H22.9
		c-6.1,0-8.9,7.6-4.2,11.6L132.7,166.9z"/>
	<path class="st0" d="M5,88.1v138.1c0,5.9,7.1,8.8,11.3,4.6L88.7,157c0.9-1,0.9-2.5-0.2-3.3L7.7,86.9C6.6,86,5,86.7,5,88.1"/>
	<path class="st0" d="M294,88.1v138.1c0,5.9-7.1,8.8-11.3,4.6L210.3,157c-0.9-1-0.9-2.5,0.2-3.3l80.8-66.8
		C292.4,86,294,86.7,294,88.1"/>
	<path class="st0" d="M196.9,168.2c-0.8-0.8-2.1-0.9-3-0.2l-24.2,18.4c-2.4,2.1-5.5,3.3-8.7,3.3h-22.8c-3.2,0-6.3-1.2-8.7-3.3
		L105.1,168c-0.9-0.7-2.2-0.6-3,0.2l-67.2,70.2c-1.4,1.4-0.4,3.8,1.6,3.8h225.8c2,0,3-2.4,1.6-3.8L196.9,168.2z"/>
</g>
</svg>
