<?xml version="1.0" encoding="utf-8"?>
<!-- Generator: Adobe Illustrator 21.0.0, SVG Export Plug-In . SVG Version: 6.00 Build 0)  -->
<svg version="1.1" id="Layer_1" xmlns="http://www.w3.org/2000/svg" xmlns:xlink="http://www.w3.org/1999/xlink" x="0px" y="0px"
	 viewBox="0 0 300 300" style="enable-background:new 0 0 300 300;" xml:space="preserve">
<style type="text/css">
	.st0{fill:#78C19B;}
</style>
<path class="st0" d="M121.4,206.8c0,0,52.3-26.6,82-79.7c3.3-5.9,2.4-13.2-2.3-18.1c-0.1-0.1-0.1-0.1-0.2-0.2L191,98.5
	c-0.4-0.4-0.9-0.8-1.3-1.2c-2.2-1.8-9.4-9.4-1.9-24.6c0.2-0.3,0.3-0.6,0.5-1l29.4-50.1c0.2-0.3,0.4-0.7,0.6-1.1
	c1.3-2.7,9-15.9,24.9,0.4l33.2,32.8c0.4,0.4,0.9,0.8,1.4,1.2c2.6,1.9,12.5,11.8,5.1,44.6c0,0-33.5,127.3-179.7,183
	c-0.2,0.1-0.4,0.2-0.6,0.3c-2.8,1.2-26.9,11-46.7-4.9c-0.4-0.3-0.8-0.7-1.2-1.1l-35.8-35.6c-0.8-0.8-1.6-1.8-2.2-2.8
	c-2.6-4.2-7.2-14.6,6.1-20.5c0.3-0.1,0.6-0.3,0.9-0.4c4.6-2.4,43.9-23.1,50.6-26.6c0.6-0.3,1.1-0.6,1.6-1c2.6-1.9,12.8-7.7,24.1,2.7
	c0.3,0.3,0.5,0.5,0.8,0.8l9.6,10.4c0.3,0.3,0.6,0.7,0.9,1C112.2,206.2,115.8,209.9,121.4,206.8z"/>
</svg>
